<svg xmlns="http://www.w3.org/2000/svg" width="1024" height="1024" viewBox="0 0 1024 1024" version="1.1"><path d="M 486.440 419.925 C 480.966 421.257, 473.754 425.399, 468.384 430.294 C 460.444 437.530, 452 452.052, 452 458.471 C 452 459.807, 451.212 461.359, 450.250 461.920 C 449.054 462.617, 479.682 462.892, 547 462.789 C 601.175 462.707, 643.438 462.474, 640.918 462.272 L 636.335 461.904 634.572 456.202 C 630.096 441.721, 620.016 429.632, 607.053 423.197 L 599.606 419.500 544.553 419.340 C 514.274 419.252, 488.123 419.515, 486.440 419.925 M 441 471.838 C 434.413 472.727, 431.531 481.332, 436.314 485.826 L 438.629 488 542.592 488 C 659.522 488, 651 488.580, 651 480.618 C 651 477.412, 650.406 475.791, 648.614 474.107 L 646.229 471.866 544.864 471.683 C 489.114 471.582, 442.375 471.652, 441 471.838 M 453 497.533 C 453 497.827, 454.094 500.189, 455.431 502.783 C 460.252 512.139, 469.872 521.790, 478.721 526.147 L 483.500 528.500 543.500 528.500 L 603.500 528.500 609.366 525.752 C 616.711 522.312, 626.321 512.691, 630.750 504.344 C 632.538 500.976, 634 497.946, 634 497.610 C 634 497.275, 593.275 497, 543.500 497 C 493.725 497, 453 497.240, 453 497.533" stroke="none" fill="#f19415" fill-rule="evenodd"/><path d="M 648.763 271.033 C 628.273 274.483, 611.013 288.904, 603.787 308.611 C 600.487 317.612, 600.050 336.514, 602.924 345.974 C 605.805 355.460, 611.059 364.100, 618.392 371.410 C 629.120 382.106, 642.245 387.318, 658.500 387.340 C 674.840 387.361, 688.895 381.152, 700.607 368.738 C 723.161 344.833, 722.257 308.697, 698.541 286.169 C 684.765 273.083, 667.594 267.862, 648.763 271.033 M 503 294.092 C 470.877 298.234, 438.452 310.502, 414 327.767 C 401.101 336.875, 377.303 360.751, 369.165 372.748 C 362.364 382.775, 352.582 401.558, 348.466 412.493 C 344.239 423.724, 339.211 446.027, 337.940 459.184 C 334.995 489.667, 341.881 525.865, 355.964 553.929 C 366.333 574.592, 384.248 597.584, 399.674 610.029 C 436.646 639.855, 479.629 654.146, 528 652.695 C 569.753 651.442, 606.272 639.179, 636.175 616.369 C 648.833 606.713, 671 583.653, 671 580.141 C 671 579.382, 641.874 578.981, 572.250 578.780 L 473.500 578.496 466.500 576.133 C 436.979 566.169, 415.846 544.639, 404.548 513.016 C 400.575 501.895, 398.938 492.927, 398.338 479 C 396.335 432.446, 421.458 389.169, 459.278 374.025 C 475.668 367.462, 473.960 367.632, 527 367.305 C 553.675 367.140, 575.581 366.666, 575.680 366.253 C 575.780 365.839, 574.580 363.250, 573.014 360.500 C 565.362 347.062, 563.130 330.410, 566.878 314.725 C 568.031 309.899, 569.658 304.629, 570.493 303.014 C 571.888 300.316, 571.867 299.999, 570.236 299.126 C 567.604 297.718, 554.828 295.272, 543.789 294.063 C 532.674 292.846, 512.550 292.860, 503 294.092 M 678.488 304.922 C 677.382 305.382, 669.660 312.764, 661.330 321.325 L 646.183 336.890 640.727 330.985 C 634.591 324.345, 631.320 322.452, 627.601 323.385 C 621.677 324.872, 619.343 331.002, 622.757 336.107 C 625.531 340.256, 641.271 356.565, 643.788 357.899 C 645.046 358.565, 647.071 358.815, 648.288 358.453 C 650.928 357.667, 660.534 348.432, 678.091 329.800 C 692.443 314.570, 693.347 312.607, 688.250 307.758 C 685.113 304.775, 681.419 303.701, 678.488 304.922 M 432.115 692.128 C 412.977 695.306, 398.293 716.906, 401.923 736.540 C 403.386 744.453, 406.261 750.030, 412.265 756.600 C 432.105 778.308, 467.385 769.589, 476.124 740.817 C 480.077 727.804, 476.904 714.331, 467.495 704.168 C 461.151 697.316, 454.660 693.569, 446.566 692.087 C 439.942 690.874, 439.665 690.874, 432.115 692.128 M 262.766 694.918 L 259.500 697.836 259.500 730 L 259.500 762.164 262.766 765.082 L 266.032 768 288.582 768 C 311.964 768, 313.934 767.700, 317.228 763.633 C 320.619 759.447, 318.369 750.851, 313.387 748.957 C 312.003 748.431, 304.149 748, 295.935 748 L 281 748 281 743.500 L 281 739 292.545 739 C 303.470 739, 304.223 738.868, 306.545 736.545 C 308.307 734.783, 308.991 733.020, 308.968 730.295 C 308.906 722.816, 305.506 721, 291.566 721 L 281 721 280.998 716.750 L 280.996 712.500 293.938 712.805 C 301.297 712.978, 308.651 712.633, 310.985 712.004 C 319.174 709.799, 321.356 700.463, 315.019 694.750 L 311.968 692 289 692 L 266.032 692 262.766 694.918 M 334.150 694.527 C 330.280 697.783, 329.369 701.869, 331.508 706.376 C 334.055 711.743, 337.839 713, 351.451 713 C 361.168 713, 362.967 713.233, 362.300 714.405 C 361.860 715.178, 355.514 722.618, 348.197 730.939 C 331.834 749.548, 330 752.181, 330 757.068 C 330 759.997, 330.765 761.669, 333.368 764.429 L 336.736 768 362.233 768 C 386.282 768, 387.876 767.886, 390.293 765.984 C 394.109 762.983, 395.454 758.023, 393.634 753.666 C 392.828 751.738, 391.261 749.675, 390.150 749.080 C 388.989 748.459, 382.371 748, 374.566 748 C 367.105 748, 361 747.745, 361 747.432 C 361 747.120, 367.188 739.893, 374.750 731.372 C 382.313 722.850, 389.738 714.016, 391.250 711.738 C 394.350 707.071, 394.777 702.403, 392.506 698.011 C 389.457 692.115, 388.870 692, 361.854 692 L 337.153 692 334.150 694.527 M 495.451 693.087 C 490.843 695.424, 490.512 697.209, 490.285 721 C 490.167 733.375, 490.403 747.888, 490.809 753.252 C 491.463 761.870, 491.848 763.302, 494.122 765.576 C 497.872 769.327, 503.535 769.826, 508 766.800 L 511.500 764.427 511.789 755.714 L 512.078 747 515.417 747 C 518.467 747, 519.374 747.822, 525.877 756.474 C 533.071 766.044, 536.757 769, 541.500 769 C 547.860 769, 553.306 763.051, 552.207 757.305 C 551.942 755.915, 549.087 751.959, 545.862 748.512 C 542.638 745.065, 540 741.909, 540 741.499 C 540 741.088, 541.991 739, 544.424 736.858 C 550.097 731.864, 552.397 726.081, 551.810 718.284 C 551.037 708.031, 544.714 699.063, 535.149 694.656 C 531.078 692.780, 528.448 692.485, 514 692.281 C 504.081 692.141, 496.683 692.462, 495.451 693.087 M 569.006 694.841 L 566 697.846 566 730 L 566 762.154 568.989 765.143 L 571.978 768.132 588.739 767.816 C 605.149 767.507, 605.639 767.434, 612.123 764.362 C 630.544 755.634, 638.899 737.706, 633.152 719.240 C 629.808 708.496, 623.518 701.404, 612 695.389 C 606.664 692.603, 605.985 692.507, 589.256 692.176 L 572.011 691.835 569.006 694.841 M 653.110 693.396 C 648.254 696.087, 648.073 697.399, 648.035 730.215 L 648 760.930 651.104 764.465 L 654.207 768 678.639 768 C 705.902 768, 706.929 767.776, 709.046 761.359 C 710.436 757.148, 709.033 752.958, 705.230 749.966 C 702.976 748.193, 701.122 748, 686.365 748 L 670 748 670 743.500 L 670 739 682.326 739 C 693.917 739, 694.781 738.862, 696.826 736.686 C 699.962 733.347, 699.822 726.731, 696.545 723.455 C 694.205 721.115, 693.517 721, 681.788 721 L 669.486 721 669.822 716.750 L 670.158 712.500 683.829 712.820 C 699.816 713.194, 704.307 712.241, 706.494 708.011 C 708.972 703.220, 708.438 698.284, 705.077 694.923 L 702.154 692 678.827 692.035 C 661.389 692.062, 654.897 692.405, 653.110 693.396 M 727.142 694.667 L 724.068 697.500 723.846 729.749 L 723.625 761.999 726.410 764.907 C 729.973 768.625, 734.908 769.612, 739.364 767.498 C 743.752 765.415, 745 762.417, 745 753.953 C 745 747.018, 745.007 747, 747.750 747.069 C 750 747.125, 751.774 748.785, 757.500 756.190 C 767.568 769.210, 772.101 771.428, 779.060 766.739 C 785.363 762.491, 784.928 757.758, 777.403 748.691 C 774.431 745.111, 772 741.804, 772 741.341 C 772 740.879, 773.627 739.202, 775.616 737.615 C 785.953 729.367, 785.834 711.343, 775.370 700.569 C 768.432 693.425, 765.490 692.559, 746.858 692.176 L 730.216 691.835 727.142 694.667 M 434.368 714.088 C 432.646 714.587, 429.634 716.770, 427.675 718.938 C 421.729 725.519, 421.539 734.128, 427.198 740.572 C 434.209 748.557, 442.961 749.168, 450.339 742.186 C 456.237 736.606, 457.430 730.709, 454.119 723.500 C 451.934 718.742, 449.704 716.610, 444.746 714.538 C 440.657 712.830, 438.963 712.756, 434.368 714.088 M 513 720.500 L 513 728 519.326 728 C 524.645 728, 525.997 727.632, 527.826 725.686 C 530.710 722.615, 530.597 718.507, 527.545 715.455 C 525.481 713.390, 524.131 713, 519.045 713 L 513 713 513 720.500 M 587 730 L 587 747 592.250 746.994 C 600.199 746.986, 604.380 745.428, 608.402 740.977 C 611.622 737.413, 612 736.411, 612 731.447 C 612 728.397, 611.368 724.686, 610.595 723.200 C 607.312 716.890, 600.233 713, 592.032 713 L 587 713 587 730 M 745 720.500 L 745 728 751.045 728 C 756.131 728, 757.481 727.610, 759.545 725.545 C 762.782 722.309, 762.644 719.491, 759.077 715.923 C 756.545 713.391, 755.408 713, 750.577 713 L 745 713 745 720.500" stroke="none" fill="#83b00c" fill-rule="evenodd"/></svg>